<svg width="256" height="304" viewBox="0 0 256 304" fill="none" xmlns="http://www.w3.org/2000/svg">
<path d="M39.7856 7.99951L10.3846 21.7177L69.027 147.553L98.428 133.835L97.7521 132.384C97.7093 131.722 97.6875 131.054 97.6875 130.38C97.6875 113.492 111.371 99.8012 128.25 99.8012C137.06 99.8012 144.999 103.53 150.576 109.497L178.976 96.246C167.997 79.9443 149.375 69.2222 128.25 69.2222C108.389 69.2222 90.7405 78.6997 79.5755 93.381L39.7856 7.99951Z" fill="#EAB308"/>
<path d="M107.039 152.312L77.6378 166.03L139.372 298.5L157.269 260.096L107.039 152.312Z" fill="#EAB308"/>
<path d="M23.5601 67.1191C12.4144 85.563 6 107.19 6 130.316C6 191.432 50.8001 242.08 109.335 251.176L92.3645 214.76C59.5611 200.787 36.5625 168.239 36.5625 130.316C36.5625 120.999 37.9505 112.007 40.5309 103.535L23.5601 67.1191Z" fill="#EAB308"/>
<path d="M146.869 220.16C188.579 211.552 219.938 174.598 219.938 130.316C219.938 79.6508 178.888 38.5788 128.25 38.5788C106.795 38.5788 87.0603 45.9523 71.4405 58.3049L58.2581 30.018C78.0852 16.1412 102.217 7.99983 128.25 7.99983C195.767 7.99983 250.5 62.7625 250.5 130.316C250.5 186.862 212.15 234.446 160.054 248.451L146.869 220.16Z" fill="#EAB308"/>
<path d="M133.377 191.326C164.736 188.72 189.375 162.429 189.375 130.38C189.375 125.029 188.688 119.838 187.398 114.891L158.74 128.263C158.788 128.962 158.812 129.668 158.812 130.38C158.812 147.268 145.129 160.959 128.25 160.959C124.834 160.959 121.549 160.398 118.482 159.364L133.377 191.326Z" fill="#EAB308"/>
</svg>
