<svg width="256" height="36" viewBox="0 0 256 36" fill="none" xmlns="http://www.w3.org/2000/svg">
<path fill-rule="evenodd" clip-rule="evenodd" d="M4 3V25.5448H58.5449V25.5393C59.5525 25.5047 60.5453 25.2855 61.4738 24.8924C62.4603 24.4755 63.3566 23.8713 64.1129 23.1131C64.8712 22.3567 65.4755 21.4604 65.8923 20.4739C66.325 19.4514 66.547 18.3522 66.5448 17.242C66.547 16.1318 66.325 15.0326 65.8923 14.0102C65.4755 13.0237 64.8713 12.1274 64.1129 11.3711C63.3567 10.6128 62.4604 10.0085 61.4738 9.59179C60.5453 9.19863 59.5526 8.97924 58.5449 8.94454V8.93921H7.87875V3H4ZM7.87875 21.6661H58.3024C59.4639 21.6458 60.5712 21.1713 61.3869 20.3443C62.2026 19.5173 62.6618 18.4036 62.666 17.242C62.6618 16.0804 62.2026 14.9667 61.3869 14.1397C60.5712 13.3127 59.4639 12.8382 58.3024 12.8179H7.87875V21.6661Z" fill="#22C55E"/>
<path d="M124.847 4.93933C124.847 4.42499 125.052 3.93171 125.415 3.56802C125.779 3.20432 126.272 3 126.787 3C127.301 3 127.794 3.20432 128.158 3.56802C128.522 3.93171 128.726 4.42499 128.726 4.93933C128.726 5.45368 128.522 5.94695 128.158 6.31065C127.794 6.67434 127.301 6.87867 126.787 6.87867C126.272 6.87867 125.779 6.67434 125.415 6.31065C125.052 5.94695 124.847 5.45368 124.847 4.93933Z" fill="#22C55E"/>
<path fill-rule="evenodd" clip-rule="evenodd" d="M140.847 25.5448V32.09H144.726V25.5448H195.634V25.5394C196.642 25.5048 197.635 25.2855 198.563 24.8924C199.55 24.4756 200.446 23.8713 201.202 23.1131C201.961 22.3567 202.565 21.4604 202.982 20.4739C203.415 19.4514 203.636 18.3522 203.634 17.242C203.636 16.1318 203.414 15.0326 202.982 14.0102C202.565 13.0237 201.961 12.1274 201.202 11.3711C200.446 10.6128 199.55 10.0085 198.563 9.59179C197.635 9.19863 196.642 8.97924 195.634 8.94454V8.93921H140.847V21.6661H133.15C131.977 21.6647 130.853 21.1982 130.023 20.3688C129.194 19.5394 128.727 18.4149 128.726 17.242V8.93921H124.847V17.4238H124.849C124.87 18.4724 125.091 19.5074 125.5 20.4733C125.916 21.4599 126.521 22.3562 127.279 23.1125C128.035 23.8707 128.932 24.475 129.918 24.8918C130.809 25.2693 131.76 25.4868 132.726 25.5342V25.5448H140.847ZM195.392 21.6661C196.553 21.6458 197.661 21.1713 198.476 20.3443C199.292 19.5173 199.751 18.4036 199.755 17.242C199.751 16.0804 199.292 14.9667 198.476 14.1397C197.661 13.3127 196.553 12.8382 195.392 12.8179H144.726V21.6661H195.392Z" fill="#22C55E"/>
<path fill-rule="evenodd" clip-rule="evenodd" d="M218.402 24.8925C219.406 25.3173 220.484 25.539 221.573 25.5448H252.24V21.6661H221.634C220.794 21.6653 219.971 21.4256 219.262 20.9749C218.553 20.5242 217.986 19.8811 217.629 19.1207H252.24V16.939H252.235C252.2 15.9313 251.98 14.9385 251.587 14.0101C251.171 13.0235 250.566 12.1272 249.808 11.371C249.052 10.6126 248.155 10.0083 247.169 9.59167C246.203 9.18267 245.168 8.96187 244.119 8.94115V8.93921H221.573C220.484 8.94511 219.406 9.16695 218.402 9.59192C217.415 10.0086 216.519 10.6129 215.763 11.3713C215.005 12.1275 214.4 13.0238 213.984 14.0103C213.551 15.0327 213.329 16.1318 213.331 17.242C213.329 18.3523 213.551 19.4515 213.984 20.474C214.4 21.4606 215.005 22.3569 215.763 23.1132C216.519 23.8715 217.416 24.4757 218.402 24.8925ZM247.875 15.242C247.509 14.5251 246.954 13.921 246.271 13.4941C245.589 13.0673 244.803 12.8335 243.997 12.8179H221.634C220.817 12.8185 220.015 13.0453 219.319 13.4732C218.623 13.901 218.058 14.5132 217.688 15.242H247.875Z" fill="#22C55E"/>
<path fill-rule="evenodd" clip-rule="evenodd" d="M84.484 25.5448C83.3942 25.539 82.3164 25.3173 81.3128 24.8925C80.3262 24.4757 79.4299 23.8715 78.6736 23.1132C77.9153 22.3569 77.3109 21.4606 76.8942 20.474C76.4615 19.4515 76.2395 18.3523 76.2417 17.242C76.2395 16.1318 76.4614 15.0327 76.8941 14.0103C77.3108 13.0238 77.9152 12.1275 78.6735 11.3713C79.4297 10.6129 80.326 10.0086 81.3126 9.59192C82.3162 9.16695 83.3941 8.94511 84.484 8.93921H107.029V8.94115C108.078 8.96187 109.113 9.18267 110.079 9.59167C111.066 10.0083 111.962 10.6126 112.719 11.371C113.477 12.1272 114.081 13.0235 114.498 14.0101C114.891 14.9385 115.11 15.9313 115.145 16.939H115.15V19.1207H80.5396C80.897 19.8811 81.4634 20.5242 82.1726 20.9749C82.8818 21.4256 83.7046 21.6653 84.5448 21.6661H115.151V25.5448H84.484ZM109.182 13.4941C109.865 13.921 110.419 14.5251 110.786 15.242H80.5986C80.9686 14.5132 81.5331 13.901 82.2295 13.4732C82.926 13.0453 83.7272 12.8185 84.5446 12.8179H106.908C107.713 12.8335 108.499 13.0673 109.182 13.4941Z" fill="#22C55E"/>
</svg>
