<svg width="256" height="180" viewBox="0 0 256 180" fill="none" xmlns="http://www.w3.org/2000/svg">
<path d="M73.75 24.2805C73.75 22.1373 75.4849 20.4 77.625 20.4H178.375C180.515 20.4 182.25 22.1373 182.25 24.2805V44.1195C182.25 46.2626 180.515 48 178.375 48H77.625C75.4849 48 73.75 46.2626 73.75 44.1195V24.2805ZM170.625 38.8C172.765 38.8 174.5 37.0626 174.5 34.9195V33.4805C174.5 31.3373 172.765 29.6 170.625 29.6H131.875C129.735 29.6 128 31.3373 128 33.4805V34.9195C128 37.0626 129.735 38.8 131.875 38.8H170.625Z" fill="black"/>
<path d="M58.25 5.8807C58.25 3.73756 59.9849 2.0002 62.125 2.0002H248.125C250.265 2.0002 252 3.73756 252 5.88069V136.12C252 138.263 250.265 140 248.125 140H209.375C207.235 140 205.5 138.263 205.5 136.12V70.2805C205.5 68.1374 203.765 66.4 201.625 66.4H62.125C59.9849 66.4 58.25 64.6627 58.25 62.5195V5.8807ZM217.125 130.8C219.265 130.8 221 129.063 221 126.92V15.0805C221 12.9374 219.265 11.2 217.125 11.2H69.875C67.7349 11.2 66 12.9374 66 15.0805V53.3195C66 55.4627 67.7349 57.2 69.875 57.2H209.375C211.515 57.2 213.25 58.9374 213.25 61.0805V126.92C213.25 129.063 214.985 130.8 217.125 130.8Z" fill="black"/>
<path d="M182.25 117.719C182.25 119.863 180.515 121.6 178.375 121.6H77.625C75.4849 121.6 73.75 119.863 73.75 117.719V97.8805C73.75 95.7373 75.4849 94 77.625 94H178.375C180.515 94 182.25 95.7373 182.25 97.8805V117.719ZM85.375 103.2C83.2349 103.2 81.5 104.937 81.5 107.08V108.519C81.5 110.663 83.2349 112.4 85.375 112.4H124.125C126.265 112.4 128 110.663 128 108.519V107.08C128 104.937 126.265 103.2 124.125 103.2H85.375Z" fill="black"/>
<path d="M197.75 136.119C197.75 138.262 196.015 140 193.875 140H7.875C5.73489 140 4 138.262 4 136.119V5.88049C4 3.73735 5.7349 2 7.875 2H46.625C48.7651 2 50.5 3.73736 50.5 5.88049V71.7195C50.5 73.8626 52.2349 75.6 54.375 75.6H193.875C196.015 75.6 197.75 77.3373 197.75 79.4805V136.119ZM38.875 11.2C36.7349 11.2 35 12.9374 35 15.0805V126.919C35 129.063 36.7349 130.8 38.875 130.8H186.125C188.265 130.8 190 129.063 190 126.919V88.6805C190 86.5373 188.265 84.8 186.125 84.8H46.625C44.4849 84.8 42.75 83.0626 42.75 80.9195V15.0805C42.75 12.9374 41.0151 11.2 38.875 11.2Z" fill="black"/>
<path fill-rule="evenodd" clip-rule="evenodd" d="M5.9375 148C4.86745 148 4 148.866 4 149.933V166.608C4 168.744 5.73489 170.475 7.87499 170.475H58.4894C58.4909 170.475 58.4921 170.474 58.4921 170.472C58.4921 170.471 58.4933 170.47 58.4948 170.469C59.5006 170.435 60.4915 170.216 61.4183 169.825C62.4038 169.409 63.2992 168.807 64.0548 168.051C64.8124 167.297 65.4161 166.403 65.8325 165.42C66.2648 164.401 66.4865 163.305 66.4843 162.198C66.4865 161.091 66.2648 159.995 65.8325 158.976C65.4161 157.993 64.8124 157.099 64.0548 156.345C63.2993 155.589 62.4039 154.987 61.4183 154.571C60.4915 154.18 59.5006 153.961 58.4948 153.926C58.4933 153.926 58.4921 153.925 58.4921 153.924C58.4921 153.922 58.4909 153.921 58.4894 153.921H10.8418C9.20328 153.921 7.875 152.595 7.875 150.96V149.933C7.875 148.866 7.00755 148 5.9375 148ZM7.875 162.742C7.875 164.877 9.60989 166.608 11.75 166.608H58.2499C59.4103 166.588 60.5165 166.115 61.3314 165.291C62.1463 164.466 62.6051 163.356 62.6093 162.198C62.6051 161.04 62.1463 159.93 61.3314 159.105C60.5165 158.281 59.4103 157.808 58.2499 157.787H11.75C9.60989 157.787 7.875 159.519 7.875 161.654V162.742Z" fill="black"/>
<path d="M124.73 149.933C124.73 149.421 124.935 148.929 125.298 148.566C125.661 148.204 126.154 148 126.668 148C127.182 148 127.674 148.204 128.038 148.566C128.401 148.929 128.605 149.421 128.605 149.933C128.605 150.446 128.401 150.938 128.038 151.3C127.674 151.663 127.182 151.867 126.668 151.867C126.154 151.867 125.661 151.663 125.298 151.3C124.935 150.938 124.73 150.446 124.73 149.933Z" fill="black"/>
<path fill-rule="evenodd" clip-rule="evenodd" d="M137.445 170.475C139.251 170.475 140.715 171.936 140.715 173.737V175.067C140.715 176.134 141.582 177 142.652 177C143.722 177 144.59 176.134 144.59 175.067V173.737C144.59 171.936 146.054 170.475 147.859 170.475H195.446C195.448 170.475 195.449 170.474 195.449 170.472C195.449 170.471 195.45 170.47 195.452 170.47C196.458 170.435 197.448 170.216 198.375 169.825C199.361 169.409 200.256 168.807 201.012 168.051C201.769 167.297 202.373 166.403 202.789 165.42C203.222 164.401 203.443 163.305 203.441 162.198C203.443 161.091 203.222 159.995 202.789 158.976C202.373 157.993 201.769 157.099 201.012 156.345C200.256 155.589 199.361 154.987 198.375 154.571C197.448 154.18 196.457 153.961 195.452 153.926C195.45 153.926 195.449 153.925 195.449 153.924C195.449 153.922 195.448 153.921 195.446 153.921H144.59C142.45 153.921 140.715 155.652 140.715 157.787V162.742C140.715 164.877 138.98 166.608 136.84 166.608H133.025C131.853 166.607 130.73 166.142 129.901 165.315C129.073 164.488 128.607 163.367 128.605 162.198V155.854C128.605 154.786 127.738 153.921 126.668 153.921C125.598 153.921 124.73 154.786 124.73 155.854V162.378C124.73 162.379 124.731 162.379 124.731 162.379C124.732 162.379 124.732 162.38 124.732 162.38C124.753 163.425 124.974 164.457 125.382 165.419C125.799 166.403 126.402 167.296 127.16 168.05C127.916 168.806 128.811 169.409 129.797 169.824C130.685 170.2 131.633 170.416 132.596 170.464C132.599 170.464 132.601 170.467 132.601 170.47C132.601 170.473 132.604 170.475 132.607 170.475H137.445ZM195.207 166.608C196.367 166.588 197.473 166.115 198.288 165.291C199.103 164.466 199.562 163.356 199.566 162.198C199.562 161.04 199.103 159.93 198.288 159.105C197.473 158.281 196.367 157.808 195.207 157.787H148.465C146.325 157.787 144.59 159.519 144.59 161.654V162.742C144.59 164.877 146.325 166.608 148.465 166.608H195.207Z" fill="black"/>
<path fill-rule="evenodd" clip-rule="evenodd" d="M218.195 169.825C219.198 170.248 220.274 170.469 221.363 170.475H250.063C251.133 170.475 252 169.609 252 168.542C252 167.474 251.133 166.608 250.063 166.608H221.424C220.584 166.608 219.762 166.369 219.054 165.919C218.072 165.296 218.76 164.071 219.924 164.071H250.91C251.512 164.071 252 163.584 252 162.983V161.899C252 161.897 251.999 161.896 251.997 161.896C251.996 161.896 251.995 161.895 251.994 161.893C251.96 160.89 251.74 159.901 251.348 158.976C250.932 157.993 250.328 157.099 249.57 156.345C248.815 155.589 247.919 154.987 246.934 154.571C245.969 154.164 244.935 153.944 243.887 153.923C243.887 153.923 243.887 153.922 243.887 153.922C243.887 153.921 243.886 153.921 243.886 153.921H221.363C220.274 153.927 219.197 154.148 218.195 154.572C217.209 154.987 216.314 155.589 215.558 156.345C214.801 157.099 214.197 157.993 213.781 158.976C213.348 159.995 213.127 161.091 213.129 162.198C213.127 163.305 213.348 164.401 213.781 165.42C214.197 166.404 214.801 167.297 215.558 168.051C216.314 168.807 217.209 169.409 218.195 169.825ZM245.241 160.204C246.337 160.204 246.967 159.042 246.037 158.462C245.355 158.036 244.57 157.803 243.765 157.787H221.424C220.607 157.788 219.807 158.014 219.111 158.441C218.161 159.023 218.801 160.204 219.916 160.204H245.241Z" fill="black"/>
<path fill-rule="evenodd" clip-rule="evenodd" d="M84.4062 170.475C83.3175 170.469 82.2406 170.248 81.238 169.825C80.2524 169.409 79.357 168.807 78.6014 168.051C77.8438 167.297 77.24 166.404 76.8238 165.42C76.3914 164.401 76.1697 163.305 76.1718 162.198C76.1697 161.091 76.3914 159.995 76.8236 158.976C77.24 157.993 77.8437 157.099 78.6013 156.345C79.3568 155.589 80.2523 154.987 81.2379 154.572C82.2405 154.148 83.3174 153.927 84.4062 153.921H106.929C106.929 153.921 106.93 153.921 106.93 153.922C106.93 153.922 106.93 153.923 106.931 153.923C107.978 153.944 109.012 154.164 109.977 154.571C110.963 154.987 111.858 155.589 112.613 156.345C113.371 157.099 113.975 157.993 114.391 158.976C114.784 159.901 115.003 160.89 115.038 161.893C115.038 161.895 115.039 161.896 115.04 161.896C115.042 161.896 115.043 161.897 115.043 161.899V162.983C115.043 163.584 114.555 164.071 113.953 164.071H82.9672C81.8032 164.071 81.1147 165.296 82.097 165.919C82.8055 166.369 83.6275 166.608 84.467 166.608H113.106C114.176 166.608 115.043 167.474 115.043 168.542C115.043 169.609 114.176 170.475 113.106 170.475H84.4062ZM109.08 158.462C110.01 159.042 109.381 160.204 108.284 160.204H82.9588C81.844 160.204 81.2041 159.023 82.1539 158.441C82.8497 158.014 83.6502 157.788 84.4667 157.787H106.809C107.613 157.803 108.398 158.036 109.08 158.462Z" fill="black"/>
</svg>
