<svg width="256" height="142" viewBox="0 0 256 142" fill="none" xmlns="http://www.w3.org/2000/svg">
<path d="M73.8175 23.1213C73.8175 20.9791 75.5541 19.2425 77.6963 19.2425H178.544C180.686 19.2425 182.423 20.9791 182.423 23.1213V41.2274C182.423 43.3696 180.686 45.1063 178.544 45.1063H77.6963C75.5541 45.1063 73.8175 43.3696 73.8175 41.2274V23.1213ZM170.786 36.485C172.928 36.485 174.665 34.7484 174.665 32.6062V31.7426C174.665 29.6003 172.928 27.8638 170.786 27.8638H131.999C129.857 27.8638 128.12 29.6003 128.12 31.7426V32.6062C128.12 34.7484 129.857 36.485 131.999 36.485H170.786Z" fill="#666666"/>
<path d="M58.3025 5.87899C58.3025 3.73679 60.0391 2.00019 62.1813 2.00019H248.361C250.503 2.00019 252.24 3.73679 252.24 5.879V136.061C252.24 138.203 250.503 139.94 248.361 139.94H209.574C207.432 139.94 205.695 138.203 205.695 136.061V66.2276C205.695 64.0854 203.958 62.3488 201.816 62.3488H62.1813C60.0391 62.3488 58.3025 60.6122 58.3025 58.47V5.87899ZM217.331 131.319C219.473 131.319 221.21 129.582 221.21 127.44V14.5001C221.21 12.3579 219.473 10.6213 217.331 10.6213H69.9388C67.7966 10.6213 66.06 12.3579 66.06 14.5001V49.8487C66.06 51.9909 67.7966 53.7275 69.9388 53.7275H209.574C211.716 53.7275 213.452 55.4641 213.452 57.6063V127.44C213.452 129.582 215.189 131.319 217.331 131.319Z" fill="#666666"/>
<path d="M182.423 118.819C182.423 120.961 180.686 122.698 178.544 122.698H77.6963C75.5541 122.698 73.8175 120.961 73.8175 118.819V100.713C73.8175 98.5704 75.5541 96.8337 77.6963 96.8337H178.544C180.686 96.8337 182.423 98.5704 182.423 100.713V118.819ZM85.4538 105.455C83.3116 105.455 81.575 107.192 81.575 109.334V110.197C81.575 112.34 83.3116 114.076 85.4538 114.076H124.241C126.383 114.076 128.12 112.34 128.12 110.197V109.334C128.12 107.192 126.383 105.455 124.241 105.455H85.4538Z" fill="#666666"/>
<path d="M197.938 136.061C197.938 138.203 196.201 139.94 194.059 139.94H7.87875C5.73657 139.94 4 138.203 4 136.061V5.8788C4 3.7366 5.73658 2 7.87875 2H46.6663C48.8084 2 50.545 3.7366 50.545 5.8788V75.7125C50.545 77.8547 52.2816 79.5913 54.4238 79.5913H194.059C196.201 79.5913 197.938 81.3279 197.938 83.4701V136.061ZM38.9088 10.6213C36.7666 10.6213 35.03 12.3579 35.03 14.5001V127.44C35.03 129.582 36.7666 131.319 38.9088 131.319H186.301C188.443 131.319 190.18 129.582 190.18 127.44V92.0913C190.18 89.9491 188.443 88.2125 186.301 88.2125H46.6663C44.5241 88.2125 42.7875 86.4759 42.7875 84.3337V14.5001C42.7875 12.3579 41.0509 10.6213 38.9088 10.6213Z" fill="#666666"/>
</svg>
