<svg width="256" height="142" viewBox="0 0 256 142" fill="none" xmlns="http://www.w3.org/2000/svg">
<path d="M73.8175 32.1744C73.8175 25.0323 79.6072 19.2425 86.7492 19.2425H169.491C176.633 19.2425 182.423 25.0323 182.423 32.1744C182.423 39.3164 176.633 45.1062 169.491 45.1062H86.7492C79.6072 45.1062 73.8175 39.3164 73.8175 32.1744ZM170.354 36.485C172.735 36.485 174.665 34.5551 174.665 32.1744C174.665 29.7937 172.735 27.8637 170.354 27.8637H132.431C130.05 27.8637 128.12 29.7937 128.12 32.1744C128.12 34.5551 130.05 36.485 132.431 36.485H170.354Z" fill="#A855F7"/>
<path d="M58.3025 32.1745C58.3025 15.5097 71.8118 2.00024 88.4764 2.00024H221.21C238.347 2.00024 252.24 15.893 252.24 33.0307V116.667C252.24 129.52 241.821 139.94 228.967 139.94C216.114 139.94 205.695 129.52 205.695 116.667V93.3793C205.695 76.2416 191.802 62.3488 174.665 62.3488H88.4764C71.8118 62.3488 58.3025 48.8393 58.3025 32.1745ZM217.331 121.622C219.473 121.622 221.21 119.885 221.21 117.743V41.6518C221.21 24.5141 207.317 10.6213 190.18 10.6213H87.6128C75.7095 10.6213 66.06 20.271 66.06 32.1744C66.06 44.0779 75.7095 53.7276 87.6128 53.7276H182.423C199.56 53.7276 213.452 67.6204 213.452 84.758V117.743C213.452 119.885 215.189 121.622 217.331 121.622Z" fill="#A855F7"/>
<path d="M182.423 109.766C182.423 116.908 176.633 122.697 169.491 122.697H86.7492C79.6072 122.697 73.8175 116.908 73.8175 109.766C73.8175 102.624 79.6072 96.8337 86.7492 96.8337H169.491C176.633 96.8337 182.423 102.624 182.423 109.766ZM85.8856 105.455C83.5049 105.455 81.575 107.385 81.575 109.766C81.575 112.146 83.5049 114.076 85.8856 114.076H123.809C126.19 114.076 128.12 112.146 128.12 109.766C128.12 107.385 126.19 105.455 123.809 105.455H85.8856Z" fill="#A855F7"/>
<path d="M197.938 109.766C197.938 126.43 184.428 139.94 167.764 139.94H35.03C17.8926 139.94 4 126.047 4 108.909V25.2728C4 12.4196 14.4195 2 27.2725 2C40.1255 2 50.545 12.4196 50.545 25.2728V48.5608C50.545 65.6985 64.4376 79.5913 81.575 79.5913H167.764C184.428 79.5913 197.938 93.1007 197.938 109.766ZM38.9088 20.3183C36.7666 20.3183 35.03 22.0549 35.03 24.1971V100.288C35.03 117.426 48.9226 131.319 66.06 131.319H168.627C180.53 131.319 190.18 121.669 190.18 109.766C190.18 97.8622 180.53 88.2125 168.627 88.2125H73.8175C56.6801 88.2125 42.7875 74.3197 42.7875 57.1821V24.1971C42.7875 22.0549 41.0509 20.3183 38.9088 20.3183Z" fill="#A855F7"/>
</svg>
