<svg width="256" height="304" viewBox="0 0 256 304" fill="none" xmlns="http://www.w3.org/2000/svg">
<path d="M37.6497 104.709C31.6373 90.7458 14.1958 90.1895 10.4059 105.04C7.53425 116.292 6 128.145 6 140.386C6 193.893 35.3127 239.986 77.4968 260.86C90.4391 267.264 101.259 252.441 95.2462 238.476C93.3909 234.167 90.0953 230.823 86.1955 228.639C56.714 212.131 36.5625 178.807 36.5625 140.386C36.5625 132.88 37.3317 125.568 38.7895 118.538C39.7513 113.9 39.5047 109.018 37.6497 104.709Z" fill="#3C61A9"/>
<path d="M154.793 256.031C150.749 246.638 155.939 235.638 164.718 231.512C197.211 216.242 219.938 181.188 219.938 140.386C219.938 85.5501 178.888 41.0966 128.25 41.0966C113.504 41.0966 99.5717 44.8661 87.229 51.5639C78.6734 56.2065 67.5619 53.4387 63.5178 44.0465C60.4762 36.9824 62.5151 28.4755 68.8015 24.6798C86.3989 14.0543 106.672 8 128.25 8C195.767 8 250.5 67.2714 250.5 140.386C250.5 196.851 217.857 245.06 171.891 264.088C165.168 266.871 157.835 263.096 154.793 256.031Z" fill="#3C61A9"/>
<path d="M129.953 198.467C132.011 203.246 136.631 206.245 141.387 205.117C168.832 198.608 189.375 172.13 189.375 140.456C189.375 131.636 180.597 127.127 173.215 130.854L160.66 137.195C159.503 137.779 158.812 139.074 158.812 140.456C158.812 158.735 145.129 173.553 128.25 173.553C124.506 173.553 121.101 177.908 122.683 181.583L129.953 198.467Z" fill="#3C61A9"/>
<path d="M140.95 110.344C147.464 113.571 155.025 115.693 161.517 112.415C170.71 107.773 173.906 95.1012 165.923 88.3259C155.542 79.5155 142.462 74.263 128.25 74.263C108.389 74.263 90.7405 84.5207 79.5755 100.411L46.6406 23.9202C42.8547 15.1277 33.2035 11.3237 25.0843 15.4239C16.9658 19.5238 13.4533 29.9744 17.2389 38.7663L62.172 143.122C65.9578 151.915 75.6091 155.719 83.7282 151.618C83.7613 151.602 83.7943 151.585 83.8272 151.568C84.2678 151.399 84.7057 151.205 85.1391 150.986L94.4964 146.261C96.5361 145.231 97.6875 142.893 97.6875 140.456C97.6875 122.177 111.371 107.36 128.25 107.36C132.781 107.36 137.083 108.427 140.95 110.344Z" fill="#3C61A9"/>
<path d="M92.3376 171.618C84.219 175.718 80.7066 186.168 84.4921 194.96L124.671 288.275C130.494 301.798 148.25 301.798 154.073 288.275C156.099 283.569 156.099 278.134 154.073 273.429L113.894 180.114C110.108 171.321 100.457 167.517 92.3376 171.618Z" fill="#3C61A9"/>
</svg>
