<svg width="256" height="304" viewBox="0 0 256 304" fill="none" xmlns="http://www.w3.org/2000/svg">
<path d="M26.5864 74.7941C25.295 71.9731 21.4617 71.7787 20.0366 74.5321C11.0735 91.8496 6 111.58 6 132.517C6 192.214 47.245 242.1 102.294 254.222C105.28 254.88 107.601 251.765 106.31 248.945L92.9833 219.833C92.5849 218.963 91.8821 218.276 91.0208 217.886C58.9348 203.348 36.5625 170.594 36.5625 132.517C36.5625 123.556 37.8018 114.889 40.1154 106.685C40.3756 105.762 40.3105 104.773 39.9121 103.903L26.5864 74.7941Z" fill="#F43F5E"/>
<path d="M148.911 228.44C147.869 226.163 149.19 223.494 151.576 222.856C190.916 212.347 219.938 175.884 219.938 132.517C219.938 80.9406 178.888 39.1293 128.25 39.1293C108.529 39.1293 90.2615 45.4713 75.3072 56.2621C73.2951 57.714 70.4411 57.0273 69.3991 54.7511L59.6134 33.375C58.8297 31.663 59.3627 29.6194 60.9097 28.5775C80.2201 15.5721 103.367 8 128.25 8C195.767 8 250.5 63.7483 250.5 132.517C250.5 188.937 213.659 236.593 163.143 251.889C161.365 252.427 159.482 251.53 158.698 249.818L148.911 228.44Z" fill="#F43F5E"/>
<path d="M132.252 192.168C132.928 193.645 134.439 194.548 136.027 194.343C166.113 190.452 189.375 164.284 189.375 132.583C189.375 128.756 189.036 125.009 188.387 121.372C187.96 118.982 185.406 117.762 183.244 118.788L160.66 129.516C159.503 130.065 158.812 131.283 158.812 132.583C158.812 149.775 145.129 163.712 128.25 163.712C127.908 163.712 127.568 163.707 127.228 163.695C123.871 163.583 120.832 167.221 122.251 170.322L132.252 192.168Z" fill="#F43F5E"/>
<path d="M148.646 109.399C149.879 110.525 151.645 110.898 153.146 110.185L174.97 99.8187C177.096 98.8089 177.84 96.0977 176.393 94.217C165.204 79.6714 147.799 70.3243 128.25 70.3243C108.389 70.3243 90.7405 79.9723 79.5755 94.9179L41.4001 11.5265C40.5084 9.5787 38.2353 8.73602 36.3231 9.64433L13.8468 20.3203C11.9346 21.2285 11.1074 23.5436 11.999 25.4912L67.4125 146.538C68.3041 148.486 70.5772 149.328 72.4895 148.42L72.887 148.231C73.1162 148.172 73.3439 148.09 73.5672 147.984L95.4015 137.613C96.9015 136.9 97.7566 135.285 97.7035 133.6C97.6929 133.262 97.6875 132.923 97.6875 132.583C97.6875 115.391 111.371 101.454 128.25 101.454C136.088 101.454 143.236 104.459 148.646 109.399Z" fill="#F43F5E"/>
<path d="M81.1 167.23C79.1879 168.138 78.3606 170.453 79.2522 172.401L135.91 296.165C137.281 299.161 141.463 299.161 142.835 296.165L156.516 266.278C156.994 265.236 156.994 264.032 156.516 262.989L108.653 158.436C107.762 156.488 105.489 155.646 103.576 156.554L81.1 167.23Z" fill="#F43F5E"/>
</svg>
