<svg width="256" height="36" viewBox="0 0 256 36" fill="none" xmlns="http://www.w3.org/2000/svg">
<path fill-rule="evenodd" clip-rule="evenodd" d="M5.93937 3C4.86829 3 4 3.86827 4 4.93933V21.6661C4 23.8082 5.73657 25.5448 7.87874 25.5448H58.5421C58.5436 25.5448 58.5449 25.5435 58.5449 25.542C58.5449 25.5405 58.5461 25.5393 58.5475 25.5392C59.5543 25.5043 60.5461 25.2851 61.4738 24.8924C62.4603 24.4755 63.3566 23.8713 64.1129 23.1131C64.8712 22.3567 65.4755 21.4604 65.8923 20.4739C66.325 19.4514 66.547 18.3522 66.5448 17.242C66.547 16.1318 66.325 15.0326 65.8923 14.0102C65.4755 13.0237 64.8713 12.1274 64.1129 11.3711C63.3567 10.6128 62.4604 10.0085 61.4738 9.59179C60.5461 9.19897 59.5543 8.97962 58.5475 8.94463C58.546 8.94458 58.5449 8.94338 58.5449 8.94192C58.5449 8.94042 58.5437 8.93921 58.5422 8.93921H10.8484C9.20831 8.93921 7.87875 7.60967 7.87875 5.9696V4.93933C7.87875 3.86827 7.01046 3 5.93937 3ZM7.87875 17.7874C7.87875 19.9295 9.61532 21.6661 11.7575 21.6661H58.3024C59.4639 21.6458 60.5712 21.1713 61.3869 20.3443C62.2026 19.5173 62.6618 18.4036 62.666 17.242C62.6618 16.0804 62.2026 14.9667 61.3869 14.1397C60.5712 13.3127 59.4639 12.8382 58.3024 12.8179H11.7575C9.61532 12.8179 7.87875 14.5544 7.87875 16.6965V17.7874Z" fill="#EAB308"/>
<path d="M124.847 4.93933C124.847 4.42499 125.052 3.93171 125.415 3.56802C125.779 3.20432 126.272 3 126.787 3C127.301 3 127.794 3.20432 128.158 3.56802C128.522 3.93171 128.726 4.42499 128.726 4.93933C128.726 5.45368 128.522 5.94695 128.158 6.31065C127.794 6.67434 127.301 6.87867 126.787 6.87867C126.272 6.87867 125.779 6.67434 125.415 6.31065C125.052 5.94695 124.847 5.45368 124.847 4.93933Z" fill="#EAB308"/>
<path fill-rule="evenodd" clip-rule="evenodd" d="M137.574 25.5448C139.382 25.5448 140.847 27.01 140.847 28.8174V30.1507C140.847 31.2217 141.715 32.09 142.786 32.09C143.857 32.09 144.726 31.2217 144.726 30.1507V28.8174C144.726 27.01 146.191 25.5448 147.998 25.5448H195.632C195.633 25.5448 195.634 25.5435 195.634 25.542C195.634 25.5406 195.635 25.5394 195.637 25.5393C196.644 25.5045 197.636 25.2852 198.563 24.8924C199.55 24.4756 200.446 23.8713 201.202 23.1131C201.961 22.3567 202.565 21.4604 202.982 20.4739C203.415 19.4514 203.636 18.3522 203.634 17.242C203.636 16.1318 203.414 15.0326 202.982 14.0102C202.565 13.0237 201.961 12.1274 201.202 11.3711C200.446 10.6128 199.55 10.0085 198.563 9.59179C197.636 9.19897 196.644 8.97962 195.637 8.94463C195.635 8.94458 195.634 8.94338 195.634 8.94192C195.634 8.94042 195.633 8.93921 195.632 8.93921H144.726C142.584 8.93921 140.847 10.6757 140.847 12.8179V17.7874C140.847 19.9295 139.11 21.6661 136.968 21.6661H133.15C131.977 21.6647 130.853 21.1982 130.023 20.3688C129.194 19.5394 128.727 18.4149 128.726 17.242V10.8785C128.726 9.80748 127.858 8.93921 126.787 8.93921C125.715 8.93921 124.847 9.80748 124.847 10.8785V17.4228C124.847 17.4234 124.848 17.4238 124.848 17.4238C124.849 17.4238 124.849 17.4242 124.849 17.4248C124.87 18.4731 125.091 19.5077 125.5 20.4733C125.916 21.4599 126.521 22.3562 127.279 23.1125C128.035 23.8707 128.932 24.475 129.918 24.8918C130.808 25.2686 131.756 25.486 132.721 25.534C132.724 25.5341 132.726 25.5365 132.726 25.5393C132.726 25.5423 132.728 25.5448 132.731 25.5448H137.574ZM195.392 21.6661C196.553 21.6458 197.661 21.1713 198.476 20.3443C199.292 19.5173 199.751 18.4036 199.755 17.242C199.751 16.0804 199.292 14.9667 198.476 14.1397C197.661 13.3127 196.553 12.8382 195.392 12.8179H148.605C146.462 12.8179 144.726 14.5544 144.726 16.6965V17.7874C144.726 19.9295 146.462 21.6661 148.605 21.6661H195.392Z" fill="#EAB308"/>
<path fill-rule="evenodd" clip-rule="evenodd" d="M218.402 24.8925C219.406 25.3173 220.484 25.539 221.573 25.5448H250.301C251.372 25.5448 252.24 24.6765 252.24 23.6054C252.24 22.5344 251.372 21.6661 250.301 21.6661H221.634C220.794 21.6653 219.971 21.4256 219.262 20.9749C218.279 20.3501 218.968 19.1207 220.133 19.1207H251.149C251.751 19.1207 252.24 18.6323 252.24 18.0298V16.9417C252.24 16.9402 252.239 16.939 252.237 16.939C252.236 16.939 252.235 16.9378 252.234 16.9363C252.2 15.9296 251.98 14.9377 251.587 14.0101C251.171 13.0235 250.566 12.1272 249.808 11.371C249.052 10.6126 248.155 10.0083 247.169 9.59167C246.203 9.18279 245.168 8.96201 244.12 8.94117C244.119 8.94116 244.119 8.94072 244.119 8.94019C244.119 8.93965 244.118 8.93921 244.118 8.93921H221.573C220.484 8.94511 219.406 9.16695 218.402 9.59192C217.415 10.0086 216.519 10.6129 215.763 11.3713C215.005 12.1275 214.4 13.0238 213.984 14.0103C213.551 15.0327 213.329 16.1318 213.331 17.242C213.329 18.3523 213.551 19.4515 213.984 20.474C214.4 21.4606 215.005 22.3569 215.763 23.1132C216.519 23.8715 217.416 24.4757 218.402 24.8925ZM245.474 15.242C246.572 15.242 247.202 14.0761 246.271 13.4941C245.589 13.0673 244.803 12.8335 243.997 12.8179H221.634C220.817 12.8185 220.015 13.0453 219.319 13.4732C218.368 14.0572 219.009 15.242 220.125 15.242H245.474Z" fill="#EAB308"/>
<path fill-rule="evenodd" clip-rule="evenodd" d="M84.484 25.5448C83.3942 25.539 82.3164 25.3173 81.3128 24.8925C80.3262 24.4757 79.4299 23.8715 78.6736 23.1132C77.9153 22.3569 77.3109 21.4606 76.8942 20.474C76.4615 19.4515 76.2395 18.3523 76.2417 17.242C76.2395 16.1318 76.4614 15.0327 76.8941 14.0103C77.3108 13.0238 77.9152 12.1275 78.6735 11.3713C79.4297 10.6129 80.326 10.0086 81.3126 9.59192C82.3162 9.16695 83.3941 8.94511 84.484 8.93921H107.028C107.029 8.93921 107.029 8.93965 107.029 8.94019C107.029 8.94072 107.03 8.94116 107.03 8.94117C108.079 8.96201 109.114 9.18279 110.079 9.59167C111.066 10.0083 111.962 10.6126 112.719 11.371C113.477 12.1272 114.081 13.0235 114.498 14.0101C114.891 14.9377 115.11 15.9296 115.145 16.9363C115.145 16.9378 115.146 16.939 115.148 16.939C115.149 16.939 115.15 16.9402 115.15 16.9417V18.0298C115.15 18.6323 114.662 19.1207 114.06 19.1207H83.0436C81.8785 19.1207 81.1893 20.3501 82.1726 20.9749C82.8818 21.4256 83.7046 21.6653 84.5448 21.6661H113.211C114.282 21.6661 115.151 22.5344 115.151 23.6054C115.151 24.6765 114.282 25.5448 113.211 25.5448H84.484ZM109.182 13.4941C110.113 14.0761 109.482 15.242 108.385 15.242H83.0352C81.9194 15.242 81.2788 14.0572 82.2295 13.4732C82.926 13.0453 83.7272 12.8185 84.5446 12.8179H106.908C107.713 12.8335 108.499 13.0673 109.182 13.4941Z" fill="#EAB308"/>
</svg>
